<svg id="Livello_1" data-name="Livello 1" xmlns="http://www.w3.org/2000/svg" width="171.53" height="121.63" viewBox="0 0 171.53 121.63"><defs><style>.cls-1{fill:#99b90d;}.cls-2{fill:#e2001a;}.cls-3{fill:#fff;}</style></defs><title>main_logo</title><path class="cls-1" d="M106.77,81.92c4.26,0,11.31.46,11.31,9.26a9.7,9.7,0,0,1-5.63,9.26c2.9.85,7,2.73,7,9.66a11,11,0,0,1-3.75,8.57c-2.22,1.88-5.39,2.16-9.94,2.16h-9V81.92Zm-1.3,17.16c3.29,0,7.49-.74,7.49-7.39,0-5-2.95-5.79-6.3-5.79h-5.23V99.08Zm1.47,17.77c3.7,0,7.39-1.3,7.39-6.92s-3.75-7.05-7.67-7.05h-5.23v14Z"/><polygon class="cls-1" points="141.61 120.83 125.23 120.83 125.23 117.14 131.08 117.14 131.08 85.62 125.23 85.6 125.23 81.92 141.59 81.92 141.59 85.62 135.74 85.62 135.74 117.14 141.6 117.14 141.61 120.83"/><path class="cls-1" d="M158.69,121.63c-9.14,0-12.84-8.18-12.84-20.28s3.75-20.22,12.84-20.22,12.84,8.12,12.84,20.22-3.75,20.28-12.84,20.28m7.72-20.28c0-9.88-1.36-16.42-7.72-16.42S151,91.47,151,101.35s1.3,16.47,7.72,16.47,7.72-6.53,7.72-16.47"/><rect class="cls-2" y="9.11" width="141.59" height="72.8"/><path class="cls-3" d="M19.92,21.46c3.45,0,6.34.89,7.23,2L24.7,31.9c-.66-2-1.55-9-5.33-9-1.56,0-3.89,4.67-3.89,13.34,0,4.55,1.22,14,4.66,14,1.34,0,2.23-1.34,2.23-3.12V38a5.83,5.83,0,0,0-1.44-3.44h9a5,5,0,0,0-1.34,3.33v8.45A3.63,3.63,0,0,0,30,48.79c-3,0-4.34,3-9.9,3-2.66,0-11.43-1.67-11.43-15.11,0-5.11,2.22-15.22,11.21-15.22"/><path class="cls-3" d="M36.65,30.57c1.83,0,6.77,1.89,6.77,8.89,0,.33-.17.44-.67.44l-8.21.28C34.54,41.35,35,47,39,47c1.17,0,2.95-1.22,4-3.28.27-.39.33-.11.33.33,0,1.84-1.12,7.56-6.23,7.56-1.94,0-7.1-2.5-7.1-10.67,0-3.55,2.16-10.33,6.61-10.33m-2.11,6.06v1.72h4.11c.27,0,.55-.67.55-1V35.18c0-1.89-1.06-3.39-2.17-3.39-2,0-2.49,3.11-2.49,4.84"/><path class="cls-3" d="M50.31,45.74V36.4c0-1,1.33-2.83,2.56-2.83.44,0,.66.78.66,1.17,0,.67-.17,2.5,2.33,2.5,1.12,0,2.45-1.22,2.45-4A3.39,3.39,0,0,0,55.2,30c-1,0-3,.94-4.56,3.05l-.28-2.94a9.19,9.19,0,0,1-6.27,2.66c0,.28,1,1.39,1,1.72V46.74c0,2.61-1.66,3-1.66,3.61,0,.27.44.33.83.33h7c.5,0,.56,0,.56-.39,0-.67-1.56-.39-1.56-4.55"/><path class="cls-3" d="M127.13,24.57a4.77,4.77,0,0,1,.94,2.67v20c0,2.28-1.49,2.33-1.49,3,0,.27.55.22,1.33.22h6.28c.49,0,.49-.28.22-.45a4.13,4.13,0,0,1-1.34-3V22.68c0-.39.18-1.16-.44-.55a9.33,9.33,0,0,1-5.33,2c-.5-.11-.39.16-.17.44"/><path class="cls-3" d="M120,30.18c2.83,0,4.44,1.72,4.44,3.22l.28,13.28a1.31,1.31,0,0,0,1.72,1.22c0,2.17-2.83,3-3.55,3a5.4,5.4,0,0,1-3.44-1.78,11,11,0,0,1-4.67,1.56c-4.27,0-4.83-2.67-4.83-3.89,0-5.78,8.44-8.39,9.77-8.89V33.79c0-.77-.5-1.89-1.55-1.89-3.28,0-1.28,6.17-5,6.17a1.82,1.82,0,0,1-2-1.89c0-3.72,6.94-6,8.83-6m-4.56,14.33c0,2.36,1.37,3.77,2.31,3.77,1.13,0,2-1.45,2-2V40.45c0-.65-.22-1-.62-1-2,0-3.73,3.31-3.73,5"/><path class="cls-1" d="M84.37,28.86c3.15-5.28-.51-10.51,6.44-18.51C96.77,4,101.7,5.55,110.16,0c-1.66,4.62-.66,15.21-9.2,22-8.48,6.06-13.82,2.71-16.59,6.83"/><path class="cls-3" d="M59.26,32.24c.6-.28,3.16-1.39,3.61-2,0,0,.05,2.5.44,2.78a9.82,9.82,0,0,1,5.83-1.89c1.56,0,2.33.38,3.61,1.89A10.24,10.24,0,0,1,78.92,31a3.17,3.17,0,0,1,3.17,3.11V46.9c0,1,.61,3.45,1.71,3.45A2.75,2.75,0,0,0,86,47.51l-.11-11a11.45,11.45,0,0,0-1.11-3.11c-.28-.44.44-.5.67-.5a10.31,10.31,0,0,0,4.89-2c.39-.39.61-.27.61.67L91,45.85c0,1.39.33,4,1.61,4.44.77-.33,1.61-1.33,1.61-3.5L94.19,37A6,6,0,0,0,93,33.13c-.28-.34.06-.51.56-.51a11.11,11.11,0,0,0,5.33-2c.33-.28.56-.23.56.39V32c0,.39.11,1.11,1,.5A9.61,9.61,0,0,1,106,30.63c2.12,0,3.34,1.55,3.34,4.61V45.85c0,1,.11,4,1.11,4.5.39.11-.17.22-.67.22h-6.72c-.5,0-.72,0-.17-.33a4.56,4.56,0,0,0,1.34-3.34V36.35c0-.89,0-2.67-2.28-2.67-.89,0-2.55.83-2.55,2.28V46.51c0,1.23.5,3.23,1.22,3.73.33.22.11.44-.5.38l-15.83.11-7.06.06c-.83,0-1.17,0-1.17-.44s1.06-.61,1.06-2.39V37.13c0-1.51-.44-3-2.56-3a1.79,1.79,0,0,0-2,1.94V46.9c0,1,.5,3,1.28,3.45.38.22.11.44-.39.44H66.81c-.56,0-.72-.39-.28-.67s.55-.77.55-2.83V36.79a2.16,2.16,0,0,0-2.27-2.44,2.06,2.06,0,0,0-1.94,1.72V46.46c0,1.39.38,3.44.94,3.89.33.27.11.44-.67.44H57c-.67,0-.83-.55-.23-.83a3.43,3.43,0,0,0,1-2.28l.11-10.5c.89-.89,1.67-1.89,1.45-4.94"/><path class="cls-3" d="M95.81,68.08c2.82-1.54,2.55-4.87,7.81-6.63,4.37-1.28,6.18.73,11.46.47-2,1.64-4.33,6.68-10,7.48-5.43.48-6.94-2.44-9.28-1.32"/><path class="cls-3" d="M94.8,71.13c-1.37-1.48-3.35-.81-5.22-3.75-1.44-2.46-.5-3.87-1.46-7,1.3,1,4.72,1.63,6.08,5,1.11,3.23-.44,4.6.6,5.85"/><path class="cls-3" d="M35.37,73.79c-1.88-2.05-4.62-1.13-7.19-5.16-2-3.4-.68-5.34-2-9.71,1.78,1.31,6.5,2.23,8.36,6.81,1.53,4.45-.6,6.33.83,8.06"/><path class="cls-3" d="M91.44,49.59c-.76-.53-1.47.71-.72,1.23,6.94,4.76,9,16.36,1.12,21.34-6.49,4.09-15.11,3-21.78.35-9.28-3.63-18.3-10.33-28.72-7-5.88,1.88-8.76,7.63-6.38,13.68a13.21,13.21,0,0,0,1.48,2.73H38a9.86,9.86,0,0,1-2.42-7.07c.66-12.77,16.4-8.69,23-5.57,8.19,3.87,17.57,8,26.86,6.55,6.54-1,12.11-4.59,12.82-11.63a15.47,15.47,0,0,0-6.8-14.6"/></svg>